<group> ampeg_release=1.6
<region> sample=Pizzicato\1_D.wav pitch_keycenter=d1 hikey=d1
<region> sample=Pizzicato\1_E.wav pitch_keycenter=e1 lokey=d#1 hikey=e1
<region> sample=Pizzicato\1_Gb.wav pitch_keycenter=f#1 lokey=f1 hikey=f#1
<region> sample=Pizzicato\1_Ab.wav pitch_keycenter=g#1 lokey=g1 hikey=g#1
<region> sample=Pizzicato\1_Bb.wav pitch_keycenter=a#1 lokey=a1 hikey=a#1
<region> sample=Pizzicato\2_C.wav pitch_keycenter=c2 lokey=b1 hikey=c2
<region> sample=Pizzicato\2_D.wav pitch_keycenter=d2 lokey=c#2 hikey=d2
<region> sample=Pizzicato\2_E.wav pitch_keycenter=e2 lokey=d#2 hikey=e2
<region> sample=Pizzicato\2_Gb.wav pitch_keycenter=f#2 lokey=f2 hikey=f#2
<region> sample=Pizzicato\2_Ab.wav pitch_keycenter=g#2 lokey=g2 hikey=g#2
<region> sample=Pizzicato\2_Bb.wav pitch_keycenter=a#2 lokey=a2 hikey=a#2
<region> sample=Pizzicato\3_C.wav pitch_keycenter=c3 lokey=b2 hikey=c#3
<region> sample=Pizzicato\3_Eb.wav pitch_keycenter=d#3 lokey=d3 hikey=e3
<region> sample=Pizzicato\3_Gb.wav pitch_keycenter=f#3 lokey=f3 hikey=g3
<region> sample=Pizzicato\3_A.wav pitch_keycenter=a3 lokey=g#3